#!OML:ASF F:\VICON\USERDATA\INSTALL\rory3\rory3.ASF
:FULLY-SPECIFIED
:DEGREES
4032
root -1.14 18.7501 6.02185 1.27774 -10.4834 -4.46401
lowerback 5.36645 0.833136 -1.71091
upperback 0.805376 0.98684 -0.88894
thorax -2.19267 0.501265 -0.0245254
lowerneck -9.3023 -6.66354 -7.73887
upperneck 2.67322 -8.92002 14.5167
head 3.35784 -4.01559 5.13827
rclavicle -1.10325e-014 -4.77083e-015
rhumerus 11.0042 -32.9667 -39.6685
rradius 67.9218
rwrist 7.4964
rhand -51.6846 -2.4192
rfingers 7.12502
rthumb -24.2051 -30.9117
lclavicle -1.10325e-014 -4.77083e-015
lhumerus -28.3825 5.79028 70.9671
lradius 29.8796
lwrist -9.27811
lhand -28.9218 26.96
lfingers 7.12502
lthumb -2.27623 56.9276
rfemur -6.23204 18.1653 19.0327
rtibia 15.5389
rfoot -9.27115 -16.1333
rtoes -8.49424
lfemur 1.27434 -10.0596 -4.41378
ltibia 12.7385
lfoot -15.0509 27.0618
ltoes -5.00656
4033
root -1.12242 18.7455 6.01809 1.22485 -10.5583 -4.35577
lowerback 5.36342 0.857541 -1.78281
upperback 0.795149 1.01216 -1.0043
thorax -2.201 0.514094 -0.104674
lowerneck -9.13315 -6.51382 -7.72413
upperneck 2.13711 -8.67776 14.6677
head 3.15137 -3.91332 5.21187
rclavicle 4.37326e-015 -1.74931e-014
rhumerus 11.2096 -32.3495 -39.5317
rradius 68.6988
rwrist 8.19607
rhand -52.0356 -2.43945
rfingers 7.12502
rthumb -24.5416 -30.8867
lclavicle 4.37326e-015 -1.74931e-014
lhumerus -28.4705 5.61639 71.025
lradius 30.1343
lwrist -9.5004
lhand -29.1788 27.1345
lfingers 7.12502
lthumb -2.52441 57.0994
rfemur -6.28409 18.2437 18.8622
rtibia 15.6635
rfoot -9.31097 -16.1446
rtoes -8.64666
lfemur 0.924793 -9.35665 -4.54524
ltibia 13.3873
lfoot -14.5189 26.6545
ltoes -6.28049
4034
root -1.10248 18.7393 6.01393 1.12028 -10.6235 -4.30856
lowerback 5.43738 0.883727 -1.85992
upperback 0.781461 1.03982 -1.01881
thorax -2.25787 0.528775 -0.0797839
lowerneck -8.92098 -6.36538 -7.79838
upperneck 1.61903 -8.42436 14.7349
head 2.94119 -3.81023 5.27531
rclavicle -1.10325e-014 3.18055e-015
rhumerus 11.6534 -31.6772 -39.4153
rradius 69.2373
rwrist 9.00187
rhand -52.4001 -2.203
rfingers 7.12502
rthumb -24.891 -30.6024
lclavicle -1.10325e-014 3.18055e-015
lhumerus -28.5822 5.54953 71.1862
lradius 30.3806
lwrist -9.58726
lhand -29.211 27.5241
lfingers 7.12502
lthumb -2.5555 57.4886
rfemur -6.26977 18.2335 18.7737
rtibia 15.7697
rfoot -9.28219 -16.0771
rtoes -9.04797
lfemur 0.58861 -8.59731 -4.62117
ltibia 14.125
lfoot -13.8594 26.1688
ltoes -7.55883
4035
root -1.08059 18.7318 6.00432 1.05181 -10.6473 -4.47901
lowerback 5.57856 0.884516 -1.70474
upperback 0.767927 1.0472 -0.977222
thorax -2.34883 0.531858 -0.127041
lowerneck -8.76171 -6.22503 -7.8922
upperneck 1.07108 -8.17585 14.8261
head 2.73375 -3.70742 5.34737
rclavicle -3.37934e-015 7.95139e-015
rhumerus 12.1743 -30.956 -39.345
rradius 69.6982
rwrist 9.77348
rhand -52.4484 -1.68075
rfingers 7.12502
rthumb -24.9372 -30.0737
lclavicle -3.37934e-015 7.95139e-015
lhumerus -28.599 5.48556 71.3527
lradius 30.4273
lwrist -9.87734
lhand -29.3052 27.3698
lfingers 7.12502
lthumb -2.64647 57.3331
rfemur -6.24692 18.365 18.9194
rtibia 15.8192
rfoot -9.22362 -16.1956
rtoes -9.28638
lfemur 0.198689 -7.90085 -4.40282
ltibia 14.9301
lfoot -13.8233 25.4258
ltoes -7.75128
4036
root -1.05738 18.723 5.99396 1.03552 -10.6581 -4.65325
lowerback 5.69325 0.905264 -1.50358
upperback 0.767203 1.08401 -0.988403
thorax -2.41015 0.548658 -0.256047
lowerneck -8.80127 -6.12509 -7.8133
upperneck 0.62496 -7.9962 14.8126
head 2.5847 -3.62954 5.34698
rclavicle -3.08116e-015 2.38542e-015
rhumerus 12.469 -30.2064 -39.1791
rradius 70.3116
rwrist 10.5952
rhand -52.6382 -1.4775
rfingers 7.12502
rthumb -25.1191 -29.8451
lclavicle -3.08116e-015 2.38542e-015
lhumerus -28.5633 5.22196 71.5032
lradius 30.5381
lwrist -10.1786
lhand -29.2893 26.9792
lfingers 7.12502
lthumb -2.63115 56.9427
rfemur -6.20027 18.4265 19.0359
rtibia 15.711
rfoot -9.10391 -16.255
rtoes -9.14721
lfemur -0.305775 -7.24667 -4.1762
ltibia 15.8439
lfoot -13.8986 24.717
ltoes -8.16268
